<svg width="964" height="1024" viewBox="0 0 964 1024" fill="none" xmlns="http://www.w3.org/2000/svg">
<g filter="url(#filter0_d_6_97)">
<path d="M947.597 782.067C934.87 1002.81 928.519 1420 315.313 1420C-33.8873 1420 -478 993.667 -478 641.347C-478 289.027 -103.043 -264.23 315.313 144.135C417.09 235.935 429.942 456.122 539.737 522.943C709.789 626.439 959.391 577.513 947.597 782.067Z" fill="url(#paint0_linear_6_97)"/>
<path d="M947.597 782.067C934.87 1002.81 928.519 1420 315.313 1420C-33.8873 1420 -478 993.667 -478 641.347C-478 289.027 -103.043 -264.23 315.313 144.135C417.09 235.935 429.942 456.122 539.737 522.943C709.789 626.439 959.391 577.513 947.597 782.067Z" fill="url(#paint1_linear_6_97)" fill-opacity="0.2"/>
</g>
<defs>
<filter id="filter0_d_6_97" x="-481.4" y="-8.4" width="1444.8" height="1438.8" filterUnits="userSpaceOnUse" color-interpolation-filters="sRGB">
<feFlood flood-opacity="0" result="BackgroundImageFix"/>
<feColorMatrix in="SourceAlpha" type="matrix" values="0 0 0 0 0 0 0 0 0 0 0 0 0 0 0 0 0 0 127 0" result="hardAlpha"/>
<feOffset dx="6" dy="1"/>
<feGaussianBlur stdDeviation="4.7"/>
<feComposite in2="hardAlpha" operator="out"/>
<feColorMatrix type="matrix" values="0 0 0 0 0 0 0 0 0 0 0 0 0 0 0 0 0 0 0.25 0"/>
<feBlend mode="normal" in2="BackgroundImageFix" result="effect1_dropShadow_6_97"/>
<feBlend mode="normal" in="SourceGraphic" in2="effect1_dropShadow_6_97" result="shape"/>
</filter>
<linearGradient id="paint0_linear_6_97" x1="1430.93" y1="2357.75" x2="2755.59" y2="1771.99" gradientUnits="userSpaceOnUse">
<stop stop-color="#122C51"/>
<stop offset="0.24"/>
</linearGradient>
<linearGradient id="paint1_linear_6_97" x1="451" y1="508.5" x2="235" y2="1420" gradientUnits="userSpaceOnUse">
<stop/>
<stop offset="1"/>
</linearGradient>
</defs>
</svg>
